# xmcd
# Copyright (C) 1995-1998 Ti Kan
#
# Track frame offsets:
#       150
#       23430
#       41162
#       58667
#       75337
#       92517
#       106515
#       128425
#       145107
#       161880
#       178975
#       194310
#
# Disc length: 2694 seconds
#
# Revision: 0
# Processed by: cddbd v1.5.2PL0 Copyright (c) Steve Scherf et al.
# Submitted via: CD-Transfer v1.0
#
DISCID=8e0a840c
DTITLE=Crash Test Dummies - Brad Roberts
DYEAR=93
DGENRE=
TTITLE0=God Shaffled His Feet
TTITLE1=Afternoon And Coffeespoon
TTITLE2=Mmm Mmm Mmm Mmm
TTITLE3=In The Days Of The Caveman
TTITLE4=Swimming In Your Ocean
TTITLE5=Here I Stand Before Me
TTITLE6=I Think I'll Disappear Now
TTITLE7=Hoe Does A Duck Know?
TTITLE8=When I Go Out With Artists
TTITLE9=Psychic, The
TTITLE10=Two Knights And Maidens
TTITLE11=Untitled
EXTD=
EXTT0=
EXTT1=
EXTT2=
EXTT3=
EXTT4=
EXTT5=
EXTT6=
EXTT7=
EXTT8=
EXTT9=
EXTT10=
EXTT11=
PLAYORDER=
